<svg xmlns="http://www.w3.org/2000/svg" width="512" height="512" viewBox="0 0 512 512">
  <defs>
    <linearGradient id="bg" x1="0" y1="0" x2="1" y2="1">
      <stop offset="0" stop-color="#222630"/>
      <stop offset="1" stop-color="#111318"/>
    </linearGradient>
    <linearGradient id="paper" x1="0" y1="0" x2="1" y2="1">
      <stop offset="0" stop-color="#ff89aa"/>
      <stop offset="1" stop-color="#f45f8c"/>
    </linearGradient>
  </defs>
  <rect x="20" y="20" width="472" height="472" rx="116" fill="url(#bg)" stroke="#343a46" stroke-width="8"/>
  <path d="M130 91h184l70 70v244c0 18-15 33-33 33H130c-18 0-33-15-33-33V124c0-18 15-33 33-33z" fill="url(#paper)"/>
  <path d="M314 91v52c0 18 15 33 33 33h37" fill="#ffb1c7" opacity=".88"/>
  <rect x="145" y="221" width="188" height="22" rx="11" fill="#fff" opacity=".96"/>
  <rect x="145" y="268" width="222" height="22" rx="11" fill="#fff" opacity=".96"/>
  <rect x="145" y="315" width="156" height="22" rx="11" fill="#fff" opacity=".96"/>
  <path d="M154 381v-18m31 18v-37m31 37v-25m31 25v-47m31 47v-29m31 29v-17" fill="none" stroke="#fff" stroke-width="15" stroke-linecap="round"/>
</svg>

